# Blender v2.91.2 OBJ File: 'retrovewave mk1 scene.blend'
# www.blender.org
mtllib retrowave SF phymesh.mtl
o retrowave_scene.002_retrowave_scene.081
v -1333.518433 0.002167 -905.429199
v -1333.518433 0.002167 -1356.484009
v -1333.518433 0.002179 -3.319761
v -1333.518433 0.002182 -454.374481
v -431.416809 0.002258 1349.844360
v 470.684753 0.002258 1349.844360
v 19.633966 0.002167 -1356.484009
v 470.684753 0.002167 -1356.484009
v 921.735535 0.002258 1349.844360
v 921.735535 0.002167 -1356.484009
v 921.735535 0.002228 898.789612
v -1333.518433 0.002258 1349.844360
v -1333.518433 0.002228 898.789612
v -1333.518433 0.002182 447.734955
v -882.467590 0.002258 1349.844360
v -882.467590 204.754822 447.734924
v -882.467590 159.895859 -905.429199
v -882.467590 112.959869 898.789734
v -431.416809 70.423676 898.789734
v -431.416809 273.804016 447.734955
v -882.467590 273.803894 -3.319710
v -882.467590 273.803894 -454.374481
v -882.467590 0.002167 -1356.484009
v -431.416809 273.803925 -905.429260
v -431.416809 0.002167 -1356.484009
v 19.633966 0.002258 1349.844360
v 19.633966 273.804016 447.734955
v -431.416809 273.803894 -3.319710
v -431.416809 273.803894 -454.374481
v 19.633966 108.193268 898.789673
v 470.684753 83.905518 898.789734
v 470.684753 273.804016 447.734955
v 470.684753 273.803894 -454.374481
v 19.633966 273.803925 -905.429260
v 921.735535 165.451965 447.734924
v 470.684753 273.803894 -3.319710
v 470.684753 273.803925 -905.429260
v 1372.786255 0.002228 898.789612
v 1372.786255 0.002182 447.734955
v 921.735535 273.803894 -3.319710
v 921.735535 221.549255 -454.374481
v 1372.786255 140.832153 -454.374481
v 921.735535 171.045334 -905.429199
v 1372.786255 65.956573 -905.429138
v 1372.786255 191.387207 -3.319717
v 1372.786255 0.002167 -1356.484009
v 1372.786255 0.002258 1349.844482
v -1333.518433 -339.709900 -1356.483887
v -1333.518433 -339.709778 1349.844360
v 1372.786255 -339.709900 -1356.483887
v 1372.786255 -339.709808 1349.844482
vt 0.023438 0.854004
vt 0.023438 0.818359
vt 0.059570 0.818359
vt 0.059570 0.854004
vt 0.023438 0.854004
vt 0.023438 0.818359
vt 0.059570 0.818359
vt 0.059570 0.854004
vt 0.059570 0.818359
vt 0.023438 0.818359
vt 0.023438 0.818359
vt 0.059570 0.818359
vt 0.059570 0.818359
vt 0.059570 0.854004
vt 0.059570 0.854004
vt 0.023438 0.854004
vt 0.023438 0.854004
vt 0.023438 0.854004
vt 0.023438 0.818359
vt 0.059570 0.818359
vt 0.023438 0.854004
vt 0.023438 0.818359
vt 0.059570 0.818359
vt 0.059570 0.854004
vt 0.023438 0.818359
vt 0.059570 0.818359
vt 0.059570 0.854004
vt 0.023438 0.854004
vt 0.023438 0.818359
vt 0.059570 0.818359
vt 0.059570 0.854004
vt 0.023438 0.854004
vt 0.023438 0.818359
vt 0.059570 0.818359
vt 0.059570 0.854004
vt 0.023438 0.854004
vt 0.023438 0.818359
vt 0.059570 0.818359
vt 0.059570 0.854004
vt 0.023438 0.854004
vt 0.023438 0.818359
vt 0.059570 0.818359
vt 0.059570 0.854004
vt 0.023438 0.854004
vt 0.023438 0.818359
vt 0.059570 0.854004
vt 0.023438 0.854004
vt 0.023438 0.818359
vt 0.059570 0.818359
vt 0.059570 0.854004
vt 0.023438 0.854004
vt 0.023438 0.818359
vt 0.059570 0.818359
vt 0.059570 0.854004
vt 0.023438 0.854004
vt 0.023438 0.818359
vt 0.059570 0.818359
vt 0.059570 0.854004
vt 0.023438 0.854004
vt 0.059570 0.854004
vt 0.023438 0.854004
vt 0.023438 0.818359
vt 0.059570 0.818359
vt 0.059570 0.854004
vt 0.023438 0.854004
vt 0.059570 0.818359
vt 0.059570 0.854004
vt 0.023438 0.854004
vt 0.023438 0.818359
vt 0.059570 0.818359
vt 0.059570 0.854004
vt 0.023438 0.818359
vt 0.059570 0.818359
vt 0.059570 0.854004
vt 0.023438 0.854004
vt 0.023438 0.818359
vt 0.059570 0.818359
vt 0.023438 0.854004
vt 0.023438 0.818359
vt 0.059570 0.818359
vt 0.059570 0.854004
vt 0.023438 0.854004
vt 0.023438 0.818359
vt 0.059570 0.818359
vt 0.059570 0.854004
vt 0.023438 0.854004
vt 0.023438 0.818359
vt 0.059570 0.818359
vt 0.059570 0.854004
vt 0.023438 0.854004
vt 0.023438 0.818359
vt 0.059570 0.818359
vt 0.059570 0.854004
vt 0.023438 0.854004
vt 0.023438 0.818359
vt 0.059570 0.854004
vt 0.023438 0.854004
vt 0.023438 0.818359
vt 0.059570 0.818359
vt 0.059570 0.854004
vt 0.023438 0.854004
vt 0.023438 0.818359
vt 0.059570 0.818359
vt 0.059570 0.854004
vt 0.023438 0.854004
vt 0.023438 0.818359
vt 0.059570 0.818359
vt 0.059570 0.854004
vt 0.023438 0.854004
vt 0.023438 0.818359
vt 0.059570 0.818359
vt 0.059570 0.854004
vt 0.023438 0.854004
vt 0.023438 0.818359
vt 0.059570 0.818359
vt 0.059570 0.854004
vt 0.000000 0.000000
vt 0.000000 0.000000
vt 0.000000 0.000000
vt 0.000000 0.000000
vt 0.000000 0.000000
vn 0.2336 0.9723 0.0000
vn 0.0000 0.9723 0.2336
vn -0.0000 0.9724 0.2333
vn 0.0529 0.9818 0.1826
vn 0.0528 0.9818 0.1827
vn -0.0000 0.9724 0.2332
vn -0.0373 0.9985 -0.0396
vn -0.0033 0.9987 0.0517
vn -0.0234 0.9994 -0.0254
vn -0.0764 0.9881 -0.1333
vn -0.0419 0.9965 0.0724
vn 0.0556 0.9969 0.0554
vn 0.0000 1.0000 -0.0000
vn 0.0798 0.9870 0.1393
vn 0.0000 0.8548 -0.5189
vn -0.3341 0.9425 0.0000
vn -0.0000 0.9425 -0.3341
vn -0.0000 0.9696 -0.2449
vn -0.2449 0.9696 0.0000
vn 0.0000 0.9831 0.1829
vn 0.1829 0.9831 0.0000
vn 0.1784 0.9774 -0.1131
vn 0.1752 0.9784 -0.1098
vn 0.1785 0.9774 -0.1131
vn -0.2315 0.9169 -0.3250
vn -0.2316 0.9169 -0.3250
vn -0.0000 0.9388 0.3444
vn 0.3444 0.9388 0.0000
vn 0.3443 0.9388 0.0000
vn 0.1143 0.9868 -0.1143
vn -0.5189 0.8548 -0.0000
vn -0.3250 0.9169 -0.2316
vn -0.3251 0.9169 -0.2315
vn -0.4134 0.9106 0.0000
vn -0.5145 0.8476 0.1297
vn -0.5145 0.8476 0.1298
vn -0.4133 0.9106 -0.0000
vn 0.3359 0.9158 0.2200
vn 0.1659 0.9078 0.3852
vn -0.0761 0.9090 0.4098
vn -0.0000 0.9387 0.3447
vn -0.0761 0.9090 0.4099
vn -0.0000 0.9700 0.2430
vn 0.0928 0.9838 0.1536
vn -0.0000 0.9700 0.2429
vn 0.0505 0.9375 0.3442
vn 0.0000 0.9217 0.3880
vn -0.0000 0.9216 0.3880
vn 0.1751 0.9784 -0.1095
vn 0.2240 0.9614 -0.1596
vn -0.2429 0.9700 -0.0000
vn -0.4064 0.8953 0.1822
vn -0.2429 0.9701 -0.0000
vn -0.1496 0.9773 0.1497
vn -0.1496 0.9774 0.1496
vn 0.2128 0.9136 -0.3465
vn -0.0000 0.9895 -0.1447
vn 0.2129 0.9136 -0.3464
vn 0.1151 0.9934 0.0000
vn 0.2208 0.9693 -0.1085
vn 0.1690 0.9084 0.3825
vn 0.2200 0.9158 0.3359
vn 0.2200 0.9158 0.3360
vn -0.2361 0.9426 0.2361
vn 0.0920 0.9758 0.1986
vn -0.1382 0.9029 0.4071
vn 0.0000 0.9880 0.1543
vn -0.0811 0.9692 0.2325
vn 0.1911 0.8391 -0.5093
vn 0.0000 0.9350 -0.3546
vn -0.0974 0.9905 -0.0968
vn 0.1958 0.9617 0.1916
vn -0.0871 0.9925 -0.0857
vn 0.9935 -0.0874 0.0723
vn 0.9617 -0.1352 -0.2383
vn 1.0000 0.0000 0.0000
vn 0.9855 -0.1102 0.1288
vn 0.9994 0.0348 -0.0049
vn 1.0000 -0.0024 0.0003
vn 0.9922 -0.1236 -0.0150
vn 0.1337 -0.1337 0.9820
vn -0.0000 0.0000 1.0000
vn 0.1191 -0.0684 0.9905
vn 0.0021 0.1222 0.9925
vn 0.0010 0.0361 0.9993
vn -0.0002 -0.0592 0.9982
vn 0.0019 0.0625 0.9980
vn -0.1891 -0.1853 -0.9643
vn -0.1350 -0.0856 -0.9871
vn 0.0000 -0.0000 -1.0000
vn 0.1149 -0.0636 -0.9913
vn 0.1275 -0.0740 -0.9891
vn -0.1192 -0.1205 -0.9855
vn -0.9899 -0.1416 0.0014
vn -0.9932 -0.0583 -0.1004
vn -0.9967 -0.0428 -0.0696
vn -1.0000 0.0000 0.0000
vn -0.9852 -0.0786 0.1523
vn -0.9643 0.1891 0.1853
vn -0.9820 -0.1337 -0.1337
vn -0.0000 -1.0000 0.0000
usemtl other
s off
f 35/1/1 40/2/2 36/3/2 32/4/1
f 6/5/3 31/6/4 30/7/5 26/8/6
f 20/9/7 27/10/8 32/11/9 36/3/10 33/12/11 37/13/12 34/14/13 24/15/13 29/16/14 28/17/13
f 34/18/15 7/19/15 25/20/15 24/15/15
f 17/21/16 23/22/17 2/23/17 1/24/16
f 29/16/18 24/25/19 17/26/19 22/27/18
f 9/28/20 11/29/21 31/30/21 6/31/20
f 45/32/22 42/33/23 41/34/23 40/35/24
f 24/36/25 25/37/15 23/38/15 17/39/26
f 38/40/27 39/41/28 35/42/29 11/43/27
f 40/44/13 41/45/30 33/12/30 36/46/13
f 22/47/31 17/48/32 1/49/33 4/50/31
f 16/51/34 21/52/35 3/53/36 14/54/37
f 39/55/38 45/56/39 40/57/39 35/58/38
f 30/59/40 27/10/41 20/9/41 19/60/42
f 5/61/43 19/62/44 18/63/44 15/64/45
f 31/65/46 32/11/47 27/66/48 30/67/46
f 42/68/49 44/69/50 43/70/50 41/71/49
f 28/17/13 29/72/13 22/73/13 21/74/13
f 37/75/15 8/76/15 7/77/15 34/14/15
f 21/78/31 22/79/31 4/80/31 3/81/31
f 18/82/51 16/83/52 14/84/52 13/85/53
f 20/86/54 28/87/13 21/88/13 16/89/55
f 44/90/56 46/91/57 10/92/57 43/93/58
f 41/94/59 43/95/60 37/13/60 33/96/59
f 11/97/61 35/98/62 32/99/63 31/100/61
f 15/101/13 18/102/64 13/103/64 12/104/13
f 19/105/65 20/106/66 16/107/66 18/108/65
f 26/109/67 30/110/68 19/111/68 5/112/67
f 43/113/69 10/114/70 8/115/70 37/116/69
f 9/28/71 47/117/13 38/40/72 11/29/73
f 39/55/74 38/40/75 47/117/76 51/118/76 50/119/76 46/91/77 44/69/78 42/33/79 45/56/80
f 12/104/81 49/120/82 51/118/82 47/117/82 9/28/83 6/31/84 26/8/85 5/112/86 15/64/87
f 2/23/88 23/38/89 25/20/90 7/77/90 8/115/91 10/92/92 46/91/93 50/119/90 48/121/90
f 13/85/94 14/84/95 3/53/96 4/80/97 1/49/98 2/23/99 48/121/97 49/120/97 12/104/100
f 51/118/101 49/120/101 48/121/101 50/119/101
